<?xml version="1.0" standalone="no"?>
<!DOCTYPE svg PUBLIC "-//W3C//DTD SVG 20010904//EN"
 "http://www.w3.org/TR/2001/REC-SVG-20010904/DTD/svg10.dtd">
<svg version="1.0" xmlns="http://www.w3.org/2000/svg"
 width="300.000000pt" height="300.000000pt" viewBox="0 0 300.000000 300.000000"
 preserveAspectRatio="xMidYMid meet">
<metadata>
Created by potrace 1.10, written by Peter Selinger 2001-2011
</metadata>
<g transform="translate(0.000000,300.000000) scale(0.100000,-0.100000)"
fill="#000000" stroke="none">
<path d="M1341 2603 c-19 -16 -57 -107 -143 -342 l-31 -84 -26 31 c-14 18 -41
37 -59 43 -45 15 -36 31 29 51 30 10 64 29 77 43 44 51 21 175 -33 175 -29 0
-399 -144 -423 -165 -20 -17 -26 -34 -30 -78 -4 -55 -3 -59 30 -90 20 -19 59
-40 94 -51 32 -10 99 -34 147 -53 64 -25 96 -33 117 -28 17 4 30 4 30 2 0 -3
-16 -46 -35 -96 -19 -49 -35 -102 -35 -115 0 -36 35 -55 109 -58 57 -2 66 0
85 23 19 22 51 102 214 537 22 59 38 89 43 80 4 -7 66 -170 138 -362 75 -199
140 -359 153 -373 18 -20 31 -23 87 -23 68 1 92 11 104 44 5 12 -31 122 -108
330 -145 391 -163 434 -186 446 -23 13 -120 13 -154 0 -23 -9 -26 -8 -21 7 17
58 17 74 2 98 -15 23 -23 25 -85 25 -51 0 -74 -5 -90 -17z m159 -23 c0 -11
-100 -287 -204 -560 l-74 -195 -76 -1 c-68 -2 -76 0 -70 15 37 89 274 727 274
737 0 11 18 14 75 14 41 0 75 -4 75 -10z m-330 -149 l0 -70 -120 -38 c-66 -21
-120 -41 -120 -46 0 -8 19 -16 120 -52 35 -13 66 -28 68 -34 5 -15 -27 -109
-39 -117 -6 -3 -16 1 -22 10 -7 9 -70 37 -142 62 -195 68 -176 54 -173 127 l3
62 190 70 c105 39 199 76 210 82 11 7 21 13 23 13 1 0 2 -31 2 -69z m566 -118
c32 -87 95 -257 140 -378 46 -120 81 -222 79 -225 -2 -3 -37 -4 -79 -2 -58 3
-76 7 -76 18 0 8 -58 169 -129 357 -70 188 -131 352 -134 365 -5 21 -3 22 67
22 l73 0 59 -157z"/>
<path d="M1397 1839 c-10 -6 -27 -32 -38 -57 -23 -53 -70 -106 -114 -129 -71
-37 -124 -43 -425 -43 -162 0 -323 -5 -358 -10 -235 -38 -352 -179 -352 -421
0 -92 14 -138 47 -151 27 -10 142 -9 163 2 25 14 41 67 39 133 -2 64 16 101
59 119 18 8 149 14 377 19 376 7 449 15 543 63 46 23 152 121 152 140 0 5 24
-16 54 -46 30 -31 79 -70 109 -87 98 -56 146 -62 542 -70 240 -5 369 -11 388
-19 38 -16 57 -66 57 -151 0 -63 2 -71 26 -90 21 -17 41 -21 96 -21 61 0 72 3
95 26 25 25 25 27 21 152 -4 102 -9 137 -27 176 -46 103 -122 169 -241 208
-59 20 -95 22 -420 28 -242 5 -368 11 -395 20 -75 23 -140 85 -160 150 -4 14
-17 35 -28 48 -18 20 -30 22 -106 22 -47 0 -94 -5 -104 -11z m203 -55 c0 -32
35 -92 73 -126 37 -33 119 -66 187 -77 36 -6 196 -11 357 -11 178 0 313 -4
345 -11 119 -25 209 -94 254 -191 25 -56 28 -77 32 -192 l4 -129 -23 6 c-13 4
-54 7 -90 7 l-65 0 0 88 c1 69 -3 94 -19 119 -39 65 -50 67 -455 75 -201 3
-386 11 -412 17 -109 24 -231 114 -265 197 -10 24 -20 44 -23 44 -3 0 -15 -21
-27 -48 -31 -68 -105 -138 -172 -163 -99 -37 -141 -41 -501 -48 -386 -8 -415
-12 -455 -65 -16 -22 -21 -46 -23 -124 l-4 -97 -84 0 -84 0 0 133 c0 122 2
138 26 187 28 61 98 128 159 155 80 34 142 40 448 40 319 0 395 8 474 48 57
29 121 103 135 156 l12 45 98 -2 98 -1 0 -32z"/>
<path d="M1434 1310 c-24 -10 -64 -57 -64 -75 0 -20 -66 -73 -107 -85 -22 -7
-143 -14 -293 -16 -314 -6 -356 -14 -441 -91 -64 -58 -82 -102 -87 -219 -4
-95 -3 -101 19 -126 18 -19 38 -28 77 -32 47 -6 54 -4 76 19 18 19 25 40 28
85 3 36 11 67 20 76 24 24 126 34 363 34 144 0 239 5 275 13 61 15 163 75 180
106 10 20 13 19 64 -22 110 -90 112 -91 446 -97 203 -4 302 -10 317 -18 31
-17 43 -43 43 -95 0 -33 6 -51 25 -71 21 -23 32 -26 84 -26 82 0 92 16 93 142
1 127 -27 188 -121 256 -73 53 -118 60 -411 64 -328 5 -348 11 -408 121 -14
27 -37 53 -50 58 -29 11 -100 11 -128 -1z m144 -67 c15 -50 47 -85 102 -114
43 -22 57 -23 330 -30 157 -4 301 -12 320 -18 63 -19 127 -67 156 -117 26 -44
28 -56 29 -153 l0 -106 -62 -1 -63 0 0 60 c0 77 -15 106 -65 131 -36 17 -69
20 -340 25 -323 6 -310 4 -397 67 -31 23 -52 48 -65 78 -10 25 -20 45 -23 45
-3 -1 -16 -23 -29 -51 -27 -58 -98 -112 -171 -128 -25 -6 -146 -11 -270 -11
-248 0 -352 -11 -390 -39 -21 -15 -25 -28 -27 -72 -2 -30 -5 -68 -8 -86 -5
-29 -8 -31 -33 -24 -15 4 -44 7 -64 5 l-38 -3 0 97 c0 86 3 105 27 151 28 57
83 104 151 130 27 10 117 16 327 20 289 7 290 7 340 33 51 27 89 72 100 121 7
26 9 27 80 27 l72 0 11 -37z"/>
</g>
</svg>
